<svg xmlns="http://www.w3.org/2000/svg" xmlns:xlink="http://www.w3.org/1999/xlink" width="793" zoomAndPan="magnify" viewBox="0 0 595.5 842.249979" height="1122" preserveAspectRatio="xMidYMid meet" version="1.0"><defs><clipPath id="69bf46a1e7"><path d="M 187 307 L 415.976562 307 L 415.976562 536 L 187 536 Z M 187 307 " clip-rule="nonzero"/></clipPath></defs><path fill="#000000" d="M 373.691406 497.597656 C 372.941406 504.433594 365.832031 508.957031 355.023438 515.828125 C 336.265625 527.757812 317.527344 529.019531 309.53125 529.5 C 284.769531 530.96875 266.546875 523.347656 257.046875 519.246094 C 240.828125 512.238281 232.71875 508.742188 231.386719 502.15625 C 228.148438 486.15625 264.882812 457.023438 303.121094 456.578125 C 339.089844 456.160156 375.515625 480.960938 373.691406 497.597656 Z M 373.691406 497.597656 " fill-opacity="1" fill-rule="nonzero"/><g clip-path="url(#69bf46a1e7)"><path fill="#000000" d="M 403.945312 421.828125 C 403.636719 464.429688 376.789062 503.796875 336.414062 518.265625 C 296.035156 532.734375 249.496094 520.054688 221.964844 486.648438 C 194.847656 453.753906 191.601562 405.695312 213.421875 369.210938 C 235.441406 332.398438 279.597656 312.621094 321.71875 321.277344 C 369.25 331.042969 403.589844 373.4375 403.933594 421.828125 C 403.988281 429.15625 415.378906 429.179688 415.324219 421.828125 C 414.980469 374.417969 385.308594 331.566406 340.855469 314.921875 C 296.34375 298.261719 244.128906 312.300781 213.902344 348.941406 C 183.523438 385.777344 178.980469 439.042969 203.582031 480.1875 C 228.070312 521.136719 276.457031 542.535156 323.234375 533.660156 C 376.367188 523.574219 414.9375 475.503906 415.324219 421.828125 C 415.378906 414.492188 403.988281 414.492188 403.933594 421.828125 Z M 403.945312 421.828125 " fill-opacity="1" fill-rule="nonzero"/></g><path fill="#000000" d="M 347.746094 394.539062 C 347.746094 396.089844 347.667969 397.636719 347.519531 399.179688 C 347.367188 400.722656 347.140625 402.253906 346.835938 403.773438 C 346.535156 405.292969 346.160156 406.792969 345.707031 408.277344 C 345.257812 409.757812 344.738281 411.21875 344.144531 412.648438 C 343.550781 414.082031 342.890625 415.480469 342.160156 416.847656 C 341.429688 418.214844 340.632812 419.539062 339.773438 420.828125 C 338.914062 422.117188 337.992188 423.359375 337.007812 424.558594 C 336.027344 425.757812 334.988281 426.902344 333.890625 428 C 332.796875 429.09375 331.648438 430.136719 330.453125 431.117188 C 329.253906 432.101562 328.011719 433.023438 326.722656 433.882812 C 325.433594 434.746094 324.109375 435.542969 322.742188 436.273438 C 321.375 437.003906 319.976562 437.664062 318.542969 438.257812 C 317.113281 438.851562 315.65625 439.371094 314.175781 439.820312 C 312.691406 440.269531 311.191406 440.648438 309.671875 440.949219 C 308.152344 441.253906 306.621094 441.480469 305.078125 441.632812 C 303.539062 441.78125 301.992188 441.859375 300.441406 441.859375 C 298.894531 441.859375 297.347656 441.78125 295.804688 441.632812 C 294.265625 441.480469 292.734375 441.253906 291.214844 440.949219 C 289.695312 440.648438 288.195312 440.269531 286.710938 439.820312 C 285.230469 439.371094 283.773438 438.851562 282.339844 438.257812 C 280.910156 437.664062 279.511719 437.003906 278.144531 436.273438 C 276.777344 435.542969 275.449219 434.746094 274.164062 433.882812 C 272.875 433.023438 271.632812 432.101562 270.433594 431.117188 C 269.238281 430.136719 268.089844 429.09375 266.996094 428 C 265.898438 426.902344 264.859375 425.757812 263.878906 424.558594 C 262.894531 423.359375 261.972656 422.117188 261.113281 420.828125 C 260.25 419.539062 259.457031 418.214844 258.726562 416.847656 C 257.996094 415.480469 257.332031 414.082031 256.742188 412.648438 C 256.148438 411.21875 255.625 409.757812 255.175781 408.277344 C 254.726562 406.792969 254.351562 405.292969 254.050781 403.773438 C 253.746094 402.253906 253.519531 400.722656 253.367188 399.179688 C 253.214844 397.636719 253.140625 396.089844 253.140625 394.539062 C 253.140625 392.992188 253.214844 391.445312 253.367188 389.902344 C 253.519531 388.359375 253.746094 386.828125 254.050781 385.308594 C 254.351562 383.789062 254.726562 382.289062 255.175781 380.804688 C 255.625 379.320312 256.148438 377.863281 256.742188 376.433594 C 257.332031 375 257.996094 373.601562 258.726562 372.234375 C 259.457031 370.867188 260.25 369.539062 261.113281 368.253906 C 261.972656 366.964844 262.894531 365.71875 263.878906 364.523438 C 264.859375 363.324219 265.898438 362.175781 266.996094 361.082031 C 268.089844 359.984375 269.238281 358.945312 270.433594 357.964844 C 271.632812 356.980469 272.875 356.058594 274.164062 355.195312 C 275.449219 354.335938 276.777344 353.539062 278.144531 352.808594 C 279.511719 352.078125 280.910156 351.417969 282.339844 350.824219 C 283.773438 350.230469 285.230469 349.710938 286.710938 349.261719 C 288.195312 348.808594 289.695312 348.433594 291.214844 348.132812 C 292.734375 347.828125 294.265625 347.601562 295.804688 347.449219 C 297.347656 347.296875 298.894531 347.222656 300.441406 347.222656 C 301.992188 347.222656 303.539062 347.296875 305.078125 347.449219 C 306.621094 347.601562 308.152344 347.828125 309.671875 348.132812 C 311.191406 348.433594 312.691406 348.808594 314.175781 349.261719 C 315.65625 349.710938 317.113281 350.230469 318.542969 350.824219 C 319.976562 351.417969 321.375 352.078125 322.742188 352.808594 C 324.109375 353.539062 325.433594 354.335938 326.722656 355.195312 C 328.011719 356.058594 329.253906 356.980469 330.453125 357.964844 C 331.648438 358.945312 332.796875 359.984375 333.890625 361.082031 C 334.988281 362.175781 336.027344 363.324219 337.007812 364.523438 C 337.992188 365.71875 338.914062 366.964844 339.773438 368.253906 C 340.632812 369.539062 341.429688 370.867188 342.160156 372.234375 C 342.890625 373.601562 343.550781 375 344.144531 376.433594 C 344.738281 377.863281 345.257812 379.320312 345.707031 380.804688 C 346.160156 382.289062 346.535156 383.789062 346.835938 385.308594 C 347.140625 386.828125 347.367188 388.359375 347.519531 389.902344 C 347.667969 391.445312 347.746094 392.992188 347.746094 394.539062 Z M 347.746094 394.539062 " fill-opacity="1" fill-rule="nonzero"/></svg>